<svg width="340" height="88" viewBox="0 0 340 88" fill="none" xmlns="http://www.w3.org/2000/svg">
  <defs>
    <linearGradient id="planetGlow" x1="0" y1="0" x2="1" y2="1">
      <stop offset="0%" stop-color="#5B3FD7"/>
      <stop offset="50%" stop-color="#6F62F0"/>
      <stop offset="100%" stop-color="#B5AAFF"/>
    </linearGradient>
    <linearGradient id="orbitGlow" x1="0" y1="0" x2="1" y2="0">
      <stop offset="0%" stop-color="#FFFFFF"/>
      <stop offset="100%" stop-color="#DCD7FF"/>
    </linearGradient>
  </defs>
  <g transform="translate(8 10)">
    <circle cx="34" cy="34" r="32" fill="url(#planetGlow)"/>
    <path
      d="M8 38C16 24 30 18 54 20"
      stroke="url(#orbitGlow)"
      stroke-width="4"
      stroke-linecap="round"
    />
    <path
      d="M10 48C22 40 36 38 62 40"
      stroke="#E8E4FF"
      stroke-width="4"
      stroke-linecap="round"
      opacity="0.9"
    />
    <path
      d="M16 58C28 52 44 50 66 52"
      stroke="#D0C9FF"
      stroke-width="4"
      stroke-linecap="round"
      opacity="0.8"
    />
    <path
      d="M28 12L31 18L38 17L33 22L37 28L31 25L27 30L28 23L22 20L29 19L28 12Z"
      fill="#FFFFFF"
    />
    <circle cx="50" cy="12" r="3" fill="#FFFFFF" opacity="0.8"/>
  </g>
  <text x="92" y="44" font-family="Trebuchet MS, sans-serif" font-size="22" fill="#1C1C1C" font-weight="700">
    Youth Passion Project
  </text>
  <text x="92" y="64" font-family="Trebuchet MS, sans-serif" font-size="12" fill="#4C44CC">
    Guiding the stars of tomorrow
  </text>
</svg>
