<svg width="360" height="96" viewBox="0 0 360 96" fill="none" xmlns="http://www.w3.org/2000/svg">
  <defs>
    <radialGradient id="planetGlow" cx="0" cy="0" r="1" gradientUnits="userSpaceOnUse" gradientTransform="translate(44 40) rotate(45) scale(42)">
      <stop offset="0%" stop-color="#9B8BFF"/>
      <stop offset="55%" stop-color="#6B58E6"/>
      <stop offset="100%" stop-color="#3A2D92"/>
    </radialGradient>
    <linearGradient id="orbitGlow" x1="0" y1="0" x2="1" y2="0">
      <stop offset="0%" stop-color="#FFFFFF"/>
      <stop offset="60%" stop-color="#EDEBFF"/>
      <stop offset="100%" stop-color="#D6D0FF"/>
    </linearGradient>
  </defs>
  <g transform="translate(8 8)">
    <circle cx="44" cy="40" r="38" fill="url(#planetGlow)"/>
    <path d="M18 54C30 46 52 42 74 44" stroke="#CFC9FF" stroke-width="6" stroke-linecap="round" opacity="0.9"/>
    <path d="M14 44C26 30 50 24 76 26" stroke="url(#orbitGlow)" stroke-width="6" stroke-linecap="round"/>
    <path d="M20 64C36 56 58 54 86 56" stroke="#B9B0FF" stroke-width="6" stroke-linecap="round" opacity="0.85"/>
    <path d="M36 14L40 24L52 22L44 30L50 42L40 34L32 46L34 32L24 28L36 26L36 14Z" fill="#FFFFFF"/>
    <path d="M54 18C62 8 74 6 88 10" stroke="#FFFFFF" stroke-width="2.5" stroke-linecap="round"/>
    <path d="M82 8L84 18L94 16L88 22L92 30L84 26L78 34L80 24L72 20L82 18L82 8Z" fill="#FFFFFF"/>
  </g>
  <text x="110" y="48" font-family="Trebuchet MS, sans-serif" font-size="22" fill="#1C1C1C" font-weight="700">
    Youth Passion Project
  </text>
  <text x="110" y="68" font-family="Trebuchet MS, sans-serif" font-size="12" fill="#4C44CC">
    Guiding the stars of tomorrow
  </text>
</svg>
