<svg width="220" height="72" viewBox="0 0 220 72" fill="none" xmlns="http://www.w3.org/2000/svg">
  <defs>
    <linearGradient id="yppGlow" x1="0" y1="0" x2="1" y2="1">
      <stop offset="0%" stop-color="#6D63FF"/>
      <stop offset="100%" stop-color="#B7B0FF"/>
    </linearGradient>
  </defs>
  <g transform="translate(6 6)">
    <circle cx="30" cy="30" r="28" fill="url(#yppGlow)" opacity="0.9"/>
    <path d="M9 30C15 16 28 9 44 10" stroke="#FFFFFF" stroke-width="3" stroke-linecap="round"/>
    <path d="M10 40C20 32 33 30 50 31" stroke="#EDEBFF" stroke-width="3" stroke-linecap="round"/>
    <path d="M16 48C28 42 38 41 54 42" stroke="#D8D4FF" stroke-width="3" stroke-linecap="round"/>
    <path d="M22 18L26 23L32 21L28 26L32 31L26 29L22 34L23 28L18 25L24 24L22 18Z" fill="#FFFFFF"/>
  </g>
  <text x="78" y="36" font-family="Trebuchet MS, sans-serif" font-size="20" fill="#1C1C1C" font-weight="700">
    Youth Passion Project
  </text>
  <text x="78" y="56" font-family="Trebuchet MS, sans-serif" font-size="12" fill="#4C44CC">
    Guiding the stars of tomorrow
  </text>
</svg>
